<svg width="20" height="20" viewBox="0 0 127 124" fill="none" xmlns="http://www.w3.org/2000/svg">
<path d="M125.477 120.783L122.861 118.246C120.382 114.954 117.193 112.062 113.846 109.661C111.177 107.745 105.185 105.157 104.071 102.052L103.866 101.857C105.759 101.643 107.969 100.959 109.716 100.49C112.65 99.704 115.072 99.907 118.102 99.125C119.468 98.735 121.001 98.344 122.001 97.954V97.174C121.001 95.6031 119.574 93.523 117.904 92.101C113.535 88.381 108.863 84.664 103.953 81.564C101.23 79.846 97.9121 78.729 95.0271 77.272C94.0561 76.7811 92.3751 76.526 91.7331 75.71C90.2161 73.778 89.4051 71.328 88.2351 69.077C85.7861 64.36 83.3861 59.209 81.2161 54.246C79.7361 50.862 78.7731 47.526 76.9271 44.49C68.0671 29.923 58.5321 21.132 43.7601 12.49C40.6151 10.652 36.8311 9.92704 32.8311 8.97704C30.6871 8.84804 28.5401 8.71704 26.3941 8.58604C25.0831 8.04004 23.7201 6.43704 22.4921 5.65904C17.5961 2.56704 5.04309 -4.15796 1.41809 4.68404C-0.870907 10.265 4.83809 15.709 6.88009 18.538C8.31509 20.52 10.1501 22.745 11.1731 24.976C11.8481 26.443 11.9631 27.914 12.5401 29.465C13.9581 33.287 15.1911 37.445 17.0271 40.976C17.9541 42.764 18.9761 44.646 20.1491 46.244C20.8671 47.225 22.0991 47.657 22.2941 49.171C21.0901 50.857 21.0211 53.475 20.3441 55.611C17.2941 65.226 18.4461 77.178 22.8811 84.294C24.2411 86.48 27.4471 91.165 31.8561 89.367C35.7121 87.797 35.0821 82.929 36.1851 78.635C36.4341 77.663 36.0001 76.947 37.0001 76.294V76.489C38.0233 78.8628 39.1178 81.2052 40.2821 83.513C42.8821 87.7 47.1711 92.075 51.0801 95.027C53.1071 96.558 55.0001 99.204 57.0001 100.1V99.999H57.2211C56.7141 98.999 55.9191 98.832 55.2711 98.195C53.7441 96.699 52.0451 94.813 50.7841 93.098C47.2281 88.271 44.0861 82.976 41.2231 77.476C39.8551 74.85 38.6661 71.947 37.5141 69.275C37.0711 68.245 37.0761 66.683 36.1501 66.15C34.8871 68.108 33.0281 69.69 32.0511 72.003C30.4901 75.699 30.2891 80.207 29.7101 84.88C29.3671 85.002 29.5201 84.918 29.3191 85.074C26.6011 84.419 25.6471 81.622 24.6361 79.221C22.0811 73.151 21.6071 63.378 23.8551 56.392C24.4371 54.583 27.0661 48.891 26.0011 47.22C25.4931 45.555 23.8171 44.59 22.8801 43.317C21.7191 41.743 20.5611 39.671 19.7571 37.853C17.6661 33.122 16.6911 27.809 14.4891 23.025C13.4361 20.738 11.6571 18.423 10.1961 16.391C8.57909 14.138 6.76709 12.479 5.51209 9.75604C5.06709 8.78804 4.46109 7.23804 5.12209 6.24304C5.33209 5.57204 5.62909 5.29204 6.29309 5.07304C7.42609 4.20004 10.5761 5.36304 11.7561 5.85204C14.8851 7.15204 17.4971 8.35204 20.1481 10.108C21.4191 10.952 22.7071 11.998 24.2451 12.998H26.0011C28.7481 12.998 31.8251 13.23 34.3921 14.01C38.9271 15.389 42.9921 17.552 46.6841 19.883C57.9301 26.985 67.1251 37.103 73.4161 49.161C74.4281 51.103 74.8661 52.96 75.7571 55.019C77.5551 59.172 79.8211 63.447 81.6101 67.508C83.3961 71.5611 85.1361 75.65 87.6601 79.022C88.9871 80.7941 94.1111 81.746 96.4401 82.731C98.0731 83.4201 100.748 84.14 102.294 85.071C105.247 86.853 108.108 88.9751 110.88 90.926C112.264 91.9 116.52 94.04 116.733 95.804C109.87 95.616 104.629 96.256 100.148 98.145C98.8751 98.682 96.8431 98.697 96.6351 100.292C97.3351 101.025 97.4441 102.121 98.0001 103.023C99.0691 104.753 100.876 107.075 102.488 108.291C104.25 109.621 106.064 111.042 107.952 112.193C111.311 114.24 115.059 115.41 118.293 117.461C120.199 118.671 122.251 120.194 124.108 121.558C125.028 122.233 124.999 123.282 126.999 123.705V123.511C126 122.716 126.053 121.618 125.477 120.783ZM29.5141 21.465C28.0831 21.438 27.0001 21.622 26.0001 21.854V22H26.1981C26.8811 23 28.0861 24.33 28.9291 25.538L30.8811 29.646L31.0741 29.459C32.2831 28.606 32.8371 27.248 32.8301 25.168C32.3471 24.659 32.2741 24.022 31.8561 23.414C31.2981 22.605 30.2171 22.146 29.5141 21.465Z" fill="#00618A"/>
</svg>
