<svg width="20" height="20" viewBox="0 0 20 20" fill="none" xmlns="http://www.w3.org/2000/svg">
<path d="M10 1.54175C9.775 1.54175 9.54167 1.60008 9.35 1.70841L3.15 5.29175C2.75 5.52508 2.5 5.95841 2.5 6.42508V13.5751C2.5 14.0417 2.75 14.4751 3.15 14.7084L4.775 15.6417C5.56667 16.0251 5.83333 16.0334 6.2 16.0334C7.36667 16.0334 8.04167 15.3251 8.04167 14.0917V7.03341C8.04167 6.93341 7.95833 6.85008 7.85833 6.85008H7.08333C6.975 6.85008 6.89167 6.93341 6.89167 7.03341V14.0917C6.89167 14.6417 6.325 15.1834 5.41667 14.7251L3.70833 13.7501C3.68028 13.7303 3.65733 13.7041 3.64139 13.6736C3.62546 13.6432 3.61698 13.6094 3.61667 13.5751V6.42508C3.61667 6.35008 3.65 6.28341 3.70833 6.25008L9.90833 2.67508C9.95833 2.64175 10.0417 2.64175 10.0917 2.67508L16.2917 6.25008C16.35 6.28341 16.3833 6.35008 16.3833 6.42508V13.5751C16.3833 13.6417 16.35 13.7084 16.2917 13.7501L10.0917 17.3251C10.0417 17.3584 9.95833 17.3584 9.9 17.3251L8.33333 16.3751C8.26667 16.3501 8.2 16.3417 8.15833 16.3667C7.71667 16.6167 7.63333 16.6667 7.225 16.7917C7.125 16.8251 6.96667 16.8834 7.28333 17.0584L9.35 18.2834C9.55 18.4001 9.76667 18.4584 10 18.4584C10.2333 18.4584 10.45 18.4001 10.65 18.2834L16.85 14.7084C17.25 14.4751 17.5 14.0417 17.5 13.5751V6.42508C17.5 5.95841 17.25 5.52508 16.85 5.29175L10.65 1.70841C10.4583 1.60008 10.2333 1.54175 10 1.54175ZM11.6667 6.66675C9.9 6.66675 8.84167 7.40841 8.84167 8.65841C8.84167 10.0001 9.89167 10.3917 11.5917 10.5584C13.6167 10.7584 13.775 11.0584 13.775 11.4584C13.775 12.1501 13.2167 12.4417 11.9167 12.4417C10.2667 12.4417 9.91667 12.0334 9.79167 11.2167C9.78289 11.1745 9.7599 11.1366 9.72653 11.1093C9.69317 11.082 9.65144 11.067 9.60833 11.0667H8.80833C8.70833 11.0667 8.63333 11.1417 8.63333 11.2501C8.63333 12.2834 9.2 13.5334 11.9167 13.5334C13.875 13.5334 15 12.7584 15 11.4084C15 10.0667 14.1 9.71675 12.1917 9.45841C10.2667 9.20841 10.075 9.07508 10.075 8.62508C10.075 8.25008 10.2417 7.75008 11.6667 7.75008C12.9167 7.75008 13.4083 8.02508 13.6 8.88341C13.6167 8.96675 13.6917 9.02508 13.775 9.02508H14.5833C14.625 9.02508 14.675 9.00841 14.7083 8.96675C14.7417 8.93341 14.7667 8.88341 14.75 8.83341C14.6333 7.35008 13.65 6.66675 11.6667 6.66675Z" fill="#68A063"/>
</svg>
